#!OML:ASF I:\Actors\actors\Patient Classification 2\Patient 1\Session 1\actor1.ASF
:FULLY-SPECIFIED
:DEGREES
1157
root 0.6842 18.4919 6.92813 6.4819 10.2362 -4.50986
lowerback 10.9231 -0.116116 -3.45756
upperback -2.15251 -0.559756 0.983968
thorax -8.39973 -0.0725501 3.10106
lowerneck -12.285 7.6976 9.40324
upperneck 25.7293 10.0166 -4.52396
head 11.0647 4.97993 -1.84535
rclavicle -4.07509e-015 -1.74931e-014
rhumerus -60.1396 37.2441 -89.7041
rradius 112.41
rwrist -42.2591
rhand 36.2304 -61.0868
rfingers 7.12502
rthumb 59.2038 -75.6766
lclavicle -4.07509e-015 -1.74931e-014
lhumerus -76.2975 -29.2921 94.5896
lradius 125.899
lwrist 59.2492
lhand 37.3624 -1.4754
lfingers 7.12502
lthumb 60.1751 12.1198
rfemur 7.29909 -3.10451 15.4886
rtibia 2.8625e-014
rfoot -20.9097 -17.7071
rtoes -13.9412
lfemur -17.9368 -6.34651 -13.2428
ltibia 37.4413
lfoot -23.7474 4.95287
ltoes -55.9694
1158
root 0.670429 18.4924 6.93453 6.33512 9.88952 -4.47906
lowerback 10.5989 -0.108661 -3.40914
upperback -2.20095 -0.527549 1.04531
thorax -8.26702 -0.0599456 3.12898
lowerneck -12.2743 7.66095 9.44797
upperneck 26.0905 10.0188 -4.66894
head 11.21 4.96935 -1.90338
rclavicle 1.74931e-014 -4.77083e-015
rhumerus -59.577 37.4362 -89.5143
rradius 111.468
rwrist -42.5493
rhand 36.2344 -61.3301
rfingers 7.12502
rthumb 59.2072 -75.9166
lclavicle 1.74931e-014 -4.77083e-015
lhumerus -75.6748 -29.9069 94.5299
lradius 124.675
lwrist 59.8076
lhand 37.1347 -0.978279
lfingers 7.12502
lthumb 59.9805 12.8224
rfemur 7.41731 -2.75662 15.4877
rtibia 1.11319e-014
rfoot -20.9194 -17.7694
rtoes -13.8237
lfemur -17.5655 -6.19248 -13.2879
ltibia 37.2567
lfoot -23.8281 5.06019
ltoes -55.9039
1159
root 0.654963 18.4925 6.93945 6.1828 9.50216 -4.52009
lowerback 10.2827 -0.0946667 -3.31519
upperback -2.24213 -0.479244 1.13134
thorax -8.13228 -0.0411261 3.15487
lowerneck -12.2868 7.65069 9.44444
upperneck 26.4521 10.0588 -4.77832
head 11.3593 4.97457 -1.93467
rclavicle -1.26725e-014 4.77083e-015
rhumerus -59.016 39.8014 -89.7754
rradius 109.439
rwrist -43.7744
rhand 34.9967 -59.2646
rfingers 7.12502
rthumb 58.1343 -74.8649
lclavicle -1.26725e-014 4.77083e-015
lhumerus -75.006 -30.3963 94.5299
lradius 123.304
lwrist 59.952
lhand 36.9647 -0.380206
lfingers 7.12502
lthumb 59.835 13.5721
rfemur 7.51557 -2.36179 15.5612
rtibia -3.81667e-014
rfoot -20.908 -17.7962
rtoes -13.7267
lfemur -17.1912 -6.00711 -13.2515
ltibia 37.0549
lfoot -23.9296 5.21586
ltoes -55.8673
1160
root 0.638887 18.4907 6.94288 5.99018 9.18784 -4.58407
lowerback 10.0033 -0.124098 -3.1711
upperback -2.27245 -0.485371 1.20487
thorax -8.00299 -0.0515099 3.14877
lowerneck -12.339 7.67142 9.43078
upperneck 26.8774 10.118 -4.78888
head 11.5377 4.99755 -1.9238
rclavicle -8.89561e-015 9.54166e-015
rhumerus -58.3937 37.79 -88.9965
rradius 109.051
rwrist -42.488
rhand 36.7197 -61.6873
rfingers 7.12502
rthumb 59.6249 -75.8555
lclavicle -8.89561e-015 9.54166e-015
lhumerus -74.3806 -30.6954 94.5007
lradius 121.83
lwrist 59.7333
lhand 37.1876 0.132019
lfingers 7.12502
lthumb 60.0258 13.8852
rfemur 7.66779 -2.03463 15.6689
rtibia 0
rfoot -20.945 -17.8136
rtoes -13.747
lfemur -16.7868 -5.87876 -13.1865
ltibia 36.8306
lfoot -24.0293 5.38465
ltoes -55.8524
1161
root 0.622345 18.4892 6.94557 5.75816 8.8822 -4.59289
lowerback 9.75374 -0.17245 -3.09359
upperback -2.28791 -0.529311 1.24979
thorax -7.872 -0.0780748 3.15616
lowerneck -12.3268 7.70524 9.53036
upperneck 27.2549 10.1934 -4.87199
head 11.6994 5.03165 -1.95791
rclavicle -5.91384e-015 9.93923e-015
rhumerus -57.772 37.9595 -88.8248
rradius 107.496
rwrist -42.187
rhand 36.8081 -61.5808
rfingers 7.12502
rthumb 59.7008 -75.6715
lclavicle -5.91384e-015 9.93923e-015
lhumerus -73.7679 -30.8605 94.4115
lradius 120.28
lwrist 59.3111
lhand 37.3065 0.513872
lfingers 7.12502
lthumb 60.1274 14.1597
rfemur 7.88154 -1.71831 15.7207
rtibia -3.18055e-014
rfoot -20.9864 -17.8761
rtoes -14.121
lfemur -16.3163 -5.76979 -13.1912
ltibia 36.5874
lfoot -24.1147 5.57836
ltoes -55.8725
1162
root 0.603959 18.4894 6.94765 5.48986 8.5155 -4.57445
lowerback 9.53153 -0.194263 -3.09718
upperback -2.27568 -0.547539 1.31422
thorax -7.72864 -0.0883848 3.22584
lowerneck -12.303 7.73323 9.57884
upperneck 27.5784 10.2746 -4.96713
head 11.8368 5.06207 -1.98822
rclavicle 1.05356e-014 2.78299e-015
rhumerus -57.0568 37.9754 -88.5593
rradius 105.887
rwrist -41.8363
rhand 36.7159 -61.6097
rfingers 7.12502
rthumb 59.6216 -75.7812
lclavicle 1.05356e-014 2.78299e-015
lhumerus -73.0185 -30.914 94.3186
lradius 118.614
lwrist 58.6966
lhand 37.0852 0.864311
lfingers 7.12502
lthumb 59.9382 14.7094
rfemur 8.1242 -1.34157 15.7434
rtibia -6.36111e-015
rfoot -21.1071 -17.9313
rtoes -14.2726
lfemur -15.7834 -5.62264 -13.2279
ltibia 36.3295
lfoot -24.2219 5.77572
ltoes -55.9079
1163
root 0.585688 18.4895 6.94888 5.23512 8.11134 -4.55636
lowerback 9.27372 -0.18055 -3.06388
upperback -2.2578 -0.513787 1.36599
thorax -7.56316 -0.0759435 3.25223
lowerneck -12.2882 7.74216 9.62368
upperneck 27.8572 10.3306 -5.07646
head 11.9579 5.07897 -2.02727
rclavicle -1.68967e-014 -9.93923e-015
rhumerus -56.305 37.8163 -88.2204
rradius 104.268
rwrist -41.5092
rhand 36.3801 -61.5468
rfingers 7.12502
rthumb 59.3328 -76.009
lclavicle -1.68967e-014 -9.93923e-015
lhumerus -72.1168 -30.926 94.2367
lradius 116.835
lwrist 57.881
lhand 36.6273 1.09922
lfingers 7.12502
lthumb 59.5455 15.348
rfemur 8.33349 -0.928788 15.7645
rtibia -9.54166e-015
rfoot -21.3174 -17.9266
rtoes -13.8625
lfemur -15.2557 -5.45504 -13.2612
ltibia 36.0564
lfoot -24.3292 5.9269
ltoes -55.7867
